<svg version="1.1" width="193" height="43" xmlns="http://www.w3.org/2000/svg" xmlns:xlink="http://www.w3.org/1999/xlink" x="0px" y="0px"
	 viewBox="0 0 518.8 115.5" style="enable-background:new 0 0 518.8 115.5;" xml:space="preserve">
<style type="text/css">
	.st0{fill:#13B78F;}
	.st1{fill:#13B297;}
	.st2{fill:#11A8A4;}
	.st3{fill:#11A5A9;}
	.st4{fill:#12ABA0;}
	.st5{fill:#13B592;}
	.st6{fill:#10A2AD;}
	.st7{fill:#12A8A1;}
	.st8{fill:#11A7A6;}
	.st9{fill:#12AF9B;}
	.st10{fill:#11A0B0;}
	.st11{fill:#0A81AE;}
	.st12{fill:#12AD9D;}
	.st13{fill:#0F97A6;}
	.st14{fill:#0E91A8;}
	.st15{fill:#0773B3;}
	.st16{fill:#11A2A2;}
	.st17{fill:#109EA4;}
	.st18{fill:#0151BF;}
	.st19{fill:#066EB5;}
	.st20{fill:#0D8DAA;}
	.st21{fill:#035DBA;}
	.st22{fill:#0463B8;}
	.st23{fill:#0258BC;}
	.st24{fill:#0444C4;}
	.st25{fill:#054E86;}
	.st26{fill:#034287;}
	.st27{fill:#033D87;}
	.st28{fill:#0668B7;}
	.st29{fill:#0F97A0;}
	.st30{fill:#0F91A1;}
	.st31{fill:#095A87;}
	.st32{fill:#13AD9E;}
	.st33{fill:#15A1A0;}
	.st34{fill:#52A0BD;}
	.st35{fill:#084A89;}
	.st36{fill:#043787;}
	.st37{fill:#013BA4;}
	.st38{fill:#0879B1;}
	.st39{fill:#0D88AB;}
	.st40{fill:#076BA5;}
	.st41{fill:#0873A5;}
	.st42{fill:#0D8AA3;}
	.st43{fill:#0B84A3;}
	.st44{fill:#0562A6;}
	.st45{fill:#045AA6;}
	.st46{fill:#0347BC;}
	.st47{fill:#0568B6;}
	.st48{fill:#0A7FA4;}
	.st49{fill:#0249A5;}
	.st50{fill:#0142A5;}
	.st51{fill:#0351A5;}
	.st52{fill:#097AA5;}
	.st53{fill:#172130;}
</style>
<g>
	<path class="st0" d="M16.9,83C9.5,75.4,4.2,66.9,4,55.9c2.6-2.1,5.5-0.7,8.2-0.4c8.5,1.2,17.2,2.1,25.5,4.4
		c3.2,2.3,0.3,3.8-0.9,5.1c-5.6,5.9-11.6,11.3-17.2,17.2C18.8,82.8,18,83.3,16.9,83z"/>
	<path class="st1" d="M4,47.9c0-2.7,0-5.3,0-8c3.2-1.6,6.2,0.3,9.1,0.7c12.8,1.6,25.5,3.6,38.1,6.5c1.3,0.9,0.8,1.9,0.3,3
		c-1.8,2.2-3.6,4.3-6.6,4.9c-10.5-0.4-20.9-2.5-31.3-4.2C10.4,50.3,6.8,50.5,4,47.9z"/>
	<path class="st2" d="M9.6,25.8c0.7-2.4,2.3-4.3,4.1-6c1.4-0.9,2.9-0.6,4.4-0.3c16.6,2.8,33.2,5.1,49.8,7.8c1.3,0.2,3.7-0.6,2.8,2.3
		l0,0.2c-1.7,0.9-2.2,2.7-3.3,4.1c-0.8,1-1.8,1.6-3.1,1.8c-17.3-3.6-34.8-6-52.2-8.6C11.1,27,10.2,26.7,9.6,25.8z"/>
	<path class="st3" d="M74.9,16.7c1.2,2.9,0.5,5.6-1,8.2c-1.6,1.3-3.5,0.8-5.2,0.5c-14.9-2.2-29.7-4.6-44.6-7.1
		c-2.3-0.4-5.2-0.2-5.4-3.7c1.7-2.1,3.7-3.7,6.1-4.7c13.8,2.9,27.9,4.1,41.7,6.7C69.3,17.1,72.1,17.3,74.9,16.7z"/>
	<path class="st4" d="M9.6,25.8c8.3,0,16.3,1.9,24.3,3.3c10.4,1.8,21,2.2,31.1,5.8c0.3,2.4-1.6,3.4-2.9,4.8c-0.9,0.6-1.8,1-2.9,1
		c-5.3-1.7-11-1.3-16.4-2.9c-7.9-1.6-15.8-3.1-23.9-3.8c-0.5-0.1-1.1-0.2-1.6-0.3c-2.3-0.7-4.8-0.5-7.1-1.5c-1.3-0.5-3-0.6-2.5-2.7
		C7.8,28,8.5,26.8,9.6,25.8z"/>
	<path class="st5" d="M4,47.9c11.5,1.8,23,3.5,34.5,5.5c2.5,0.4,4.9,0.4,7.4,0.5c-0.7,3.9-3.1,6.3-7,7c-6-0.8-12.1-1.2-17.9-2.6
		C15.3,57,9.6,57,4,55.9C4,53.2,4,50.6,4,47.9z"/>
	<path class="st6" d="M74.9,16.7c-0.2,1.6-1.1,2.4-2.7,2.1c-14.9-2.3-29.8-4.6-44.8-6.9c-1.3-0.2-2.1-0.9-2.6-2
		c2.3-2,4.9-3.4,7.8-4.1c6.2-0.7,12,1.5,18.1,2c5.9,0.5,11.7,1.8,17.6,2.8c2,0.3,3.9,0.8,5.4,2.2C74.1,14.2,74.5,15.4,74.9,16.7z"/>
	<path class="st7" d="M76.6,89.9c-7.7,12.6-18.8,20.2-33.6,22.1c-1,0.5-2,0.4-3,0.3c-4-3.2-4.1-5.1,0.2-7.1
		c10.7-4.9,20.8-10.9,31.5-15.7C73.6,88.8,75.1,87.9,76.6,89.9z"/>
	<path class="st8" d="M18.7,14.6c3.6,3.7,8.6,2.8,13,3.6c14,2.6,28.2,4.5,42.2,6.7c-0.4,2-1.4,3.6-3.2,4.8c-4.6-0.9-9.2-2-13.8-2.8
		c-14.4-2.4-29-3.6-43.2-7.1C15,17.7,16.6,15.9,18.7,14.6z"/>
	<path class="st9" d="M51.9,47.9c-16-2.3-32-4.6-47.9-8c0.5-1.7,0.9-3.5,1.4-5.2c0.5-0.2,1-0.4,1.4-0.4c15.6,2.7,31.5,3.4,46.8,7.7
		c0.6,0.2,1.2,0.6,1.7,1C56.9,46.6,54.8,47.5,51.9,47.9z"/>
	<path class="st10" d="M73.7,12.9c-13.7-2.5-27.6-3.4-41.1-7.1c4.1-2.5,8.6-3.1,13.3-3c5,0.1,10-0.4,14.9,0.2
		C66.8,3.8,71.8,6.5,73.7,12.9z"/>
	<path class="st11" d="M82.9,57.7c1.4,3,0.9,6.1,0.7,9.2c-0.3,0.7-0.6,1.4-1,2C72.3,75.1,61.3,80,50.5,85.4
		c-3.2,1.6-6.5,3.3-9.8,4.8c-1.8,0.8-3.6,1.8-5.7,1c-1.1-1.1-0.5-2.4-0.2-3.6c0.4-1,1-1.7,1.8-2.3c12-7.6,25.3-12.5,37.8-19.1
		c3-1.6,6.6-2.5,7.2-6.7C81.9,58.8,82.3,58.1,82.9,57.7z"/>
	<path class="st12" d="M55.9,43.9c-13.4-3.8-27.3-4.7-40.9-7c-3.2-0.6-6.6-0.8-9.6-2.2c0.4-1,0.1-2.2,1.1-2.9
		c3.9-0.9,7.5,1,11.3,1.1l0,0c8.4,1.1,16.7,2.6,25,4c5.7,1,11.7,0.5,17.1,3C59.9,42.6,58.6,43.9,55.9,43.9z"/>
	<path class="st13" d="M81.9,76.9c0.2,1.5,0,2.9-1.1,4c-2.8,3.5-7,5-10.8,6.9c-10.4,5.1-20.8,10.3-31.2,15.6c-1,0.5-2,1.2-3.3,0.5
		c-0.7-0.9-0.8-1.9-0.6-2.9c1.8-4.7,6.4-6.3,10.3-7.9c10.4-4.4,20.3-9.5,30.3-14.7C77.5,77.3,79.4,75.3,81.9,76.9z"/>
	<path class="st14" d="M81.9,76.9c-4.5,1-8,3.9-12,5.9c-9.9,4.8-19.7,9.6-29.6,14.4c-1.8,0.9-3.6,1.8-4.5,3.8
		c-0.5,0.4-0.9,0.3-1.3-0.1c-0.5-0.7-0.6-1.4-0.6-2.2c0.1-0.8,0.4-1.5,0.9-2.1c7.8-5.4,16.3-9.3,24.9-13.2
		c6.4-2.9,12.5-6.1,18.6-9.4c1.4-0.8,2.8-1.9,4.6-1C82.6,74.2,82.2,75.6,81.9,76.9z"/>
	<path class="st15" d="M82.9,57.7c-0.1,0.7-0.1,1.5-0.2,2.2c-2.1,3.5-6.2,3.6-9.3,5.4C63.6,70.9,53.4,75.9,43,80.7
		c-1.4,0.6-2.8,1.2-4.3,0.4c-0.6-0.6-0.8-1.4-0.7-2.2c0.2-1.7,1-3,2.6-3.8c9.1-2.7,16.9-8.1,25.6-11.8c4.4-1.9,8.4-4.6,12.9-6.2
		c1.2-0.4,2.4-1.2,3.7-0.2C83,57.1,83.1,57.4,82.9,57.7z"/>
	<path class="st16" d="M76.6,89.9c-4-1.1-6.8,2-9.8,3.4c-9.2,4.2-18,9.4-27.2,13.6c-3.8,1.7-0.1,3.3,0.2,5c-0.8,1-2.1,0.1-3,0.9
		c-1,0-2,0-3.1,0c-1.7-0.8-3.6,0.1-5.3-0.7l-0.3,0.1l-0.3-0.2c0-2.6,2.4-2.3,3.9-2.9c2.1-0.8,4-1.6,4.8-3.8
		c6.6-4.9,14.3-7.7,21.4-11.5c5.1-2.8,10.4-5.2,15.7-7.5c1.6-0.7,3.2-2,5.1-0.4C78.5,87.4,77.7,88.7,76.6,89.9z"/>
	<path class="st17" d="M78.8,85.9c-8.4,2.3-15.8,6.9-23.7,10.5c-6.2,2.9-12.2,6.3-18.3,9.5c-0.8,0.4-1.2-0.1-1.4-0.8
		c0-0.5,0.1-0.9,0.4-1.2c10.3-6.1,21.1-11.1,31.8-16.2c4.5-2.1,8.8-4.6,13.2-6.8C80.7,82.8,80,84.4,78.8,85.9z"/>
	<path class="st18" d="M74.8,37.9c1,0.8,1.7,1.8,2,3c1.4,2.6,0.1,4.3-2,5.2c-6.6,3.1-13,6.7-19.5,10.1c-1.1,0.6-2.2,0.6-3.3,0
		c-1.3-4.9,2.4-7.2,5.1-10c3.1-0.6,6.1-1.7,8.7-3.6c0.4-0.2,0.8-0.4,1.2-0.6c1.3-0.4,2.4-1,3.2-2C71.5,38.9,73,38.1,74.8,37.9z"/>
	<path class="st19" d="M82.8,56.9C72.4,61.8,61.9,66.5,51.8,72c-3.3,1.8-6.9,3.9-11,3.9c-1-1.4-0.3-2.4,0.7-3.4
		c4.3-2.2,8.8-4,13-6.4c9.1-4.4,17.8-9.6,27.3-13.2C82.9,54,82.9,55.4,82.8,56.9z"/>
	<path class="st20" d="M82.9,72.9C74,77.5,65.3,82.8,56,86.5c-7.4,3-13.6,8.1-21.2,10.4c-0.1-0.2-0.3-0.4-0.4-0.6
		c-0.2-0.8,0-1.4,0.5-2C46.9,86.5,60,81,72.7,74.5c3.6-1.8,7.9-2.7,10.2-6.6c0.3-0.3,0.5-0.6,0.8-1C83.9,69,83.9,71,82.9,72.9z"/>
	<path class="st21" d="M78.9,44.8c0.7,0.5,1,1.2,1,2.1c1,1.8,0.6,3.4-1.1,4.2c-10.4,5-20.6,10.6-31.2,15.1c-0.5,0.2-1,0.1-1.5,0
		c-1.2-1.2-0.7-2.4-0.2-3.6c0.6-1.2,1.6-2,2.7-2.6C58.6,54.7,68.8,50,78.9,44.8z"/>
	<path class="st22" d="M45.8,65.9c10.5-5.1,21-10.2,31.5-15.2c1.7-0.8,2.8-1.8,2.5-3.7c0.9,0.7,1.1,1.7,1.1,2.8
		c1.1,3.3-1.6,4.1-3.5,4.9c-6.2,2.7-11.8,6.6-18.2,8.6c-1.5,0.5-2.3,1.8-3.7,2.5c-3.7,1.2-6.9,4.2-11.2,3.7
		c-1.2-0.8-0.7-1.7-0.3-2.7C44.4,66.1,44.9,65.6,45.8,65.9z"/>
	<path class="st23" d="M78.9,44.8c0,1.8-1.5,2.7-2.7,3.2c-9.5,3.6-18,9.1-27.3,12.9c-1.2-1.5-0.3-2.8,0.4-4.1
		c0.7-0.7,1.4-1.4,2.6-0.9c5.7-0.9,9.9-4.9,14.9-7.3c2.2-1,4.5-1.8,6.6-2.9c2-1.1,3.8-2,3.5-4.7C77.9,42,78.7,43.2,78.9,44.8z"/>
	<path class="st24" d="M74.8,37.9c-0.5,2.1-3,1.6-4,3c-1.2,1-2.9,0.9-4,2l0,0c-2.9,0.5-4.8,3.8-8.1,3.2c-1.5-3.5,2.7-4.6,3.1-7.3
		c1-1.3,2.1-2.6,3.1-3.9c0.7-0.6,1.3-1.3,2-1.9c0.9-0.7,1.6-1.7,3-1.2C71.9,33.5,73.6,35.5,74.8,37.9z"/>
	<path class="st25" d="M15.8,106.9c-2.8-1.9-3.6-4.8-4-7.9c-0.5-0.7-0.5-1.4-0.2-2.2c3.6-2.5,8-2.5,11.8-4.2c0.8,0.3,1,0.9,1.1,1.7
		c-0.1,1.1-0.4,2.2-0.7,3.4c-0.3,1.1-0.7,2.1-1.1,3.1c-0.1,0.4-0.3,0.8-0.5,1.3C21.4,105.4,19.4,107.2,15.8,106.9z"/>
	<path class="st26" d="M23.8,92.9c-3.4,3.1-7.7,3.3-11.8,4c-1-1.3-0.7-2.7-0.2-4.1c0.1-0.6,0.2-1.2,0.2-1.8
		c4.2-3.4,9.1-4.7,14.3-5.4c0.5,0.2,0.8,0.5,1,0.9c0.3,1.8-0.7,3.2-1.6,4.5C25.2,91.7,24.7,92.5,23.8,92.9z"/>
	<path class="st27" d="M26.8,85.9c-4.9,1.7-9.9,3.3-14.8,5c0.5-3.3,3.3-5.3,4.9-7.9c0.6-0.4,1.3-0.7,1.9-1.1c3.4,0.1,6.8-3.2,10.2,0
		C29.3,83.8,28.7,85.2,26.8,85.9z"/>
	<path class="st28" d="M54.8,64.9c6.7-4.6,14.7-6.8,21.6-11c1.8-1.1,4-1.6,4.4-4.1c1,0.8,1,1.9,1,3.1c-2.5,4.1-7.5,4.1-11.1,6.6
		c-4.7,3.3-10.6,5-15.9,7.4C54.2,66.2,54.3,65.6,54.8,64.9z"/>
	<path class="st29" d="M35.8,104.9c0.3,0.3,0.7,0.7,1,1c0,2.1-0.2,3.8-3.3,3.7c-1.9,0-3.8,1.5-5.7,2.3c-1.7,0-3.6,0.3-5-1.1
		c-0.9-1.3-1-2.9,0.4-3.3C27.4,106.3,31.1,103.2,35.8,104.9z"/>
	<path class="st30" d="M35.8,104.9c-3.7,1-7.4,2.1-11.2,3c-1.8,0.4-1.8,1.6-1.8,2.9c-0.9,0.1-1.7,0.2-2.3-0.7
		c-0.1-1.6,0-3.1,0.9-4.4c4.2-2.3,8.8-3.6,13.3-4.8c0.3,0,0.7,0,1,0c0,1,0,2,0,3C35.8,104.2,35.8,104.6,35.8,104.9z"/>
	<path class="st31" d="M21.8,105.9c-0.1,1.5,0.4,3.2-1.3,4.3c-1.9-0.6-3.5-1.7-4.7-3.3c2.6-1.4,5.3-2.7,6-6c0.4,0.3,0.7,0.8,0.9,1.3
		C23.1,103.6,22.8,104.8,21.8,105.9z"/>
	<path class="st32" d="M17.8,32.9c-3.9,0.6-7.5-0.9-11.3-1.1c0.4-0.8,0.8-1.5,1.1-2.3C10.4,32.5,14.7,30.8,17.8,32.9z"/>
	<path class="st33" d="M36.9,112.7c0.8-1,1.9-0.8,3-0.9c1.1,0,2.2,0.1,3.3,0.1C41.1,113.1,39,112.9,36.9,112.7z"/>
	<path class="st34" d="M69.9,31.8c-1,0.4-2,0.8-3,1.2c0.7-1.7,1.8-3,3.8-3.1C70.5,30.5,70.2,31.2,69.9,31.8z"/>
	<path class="st35" d="M11.8,92.7c0.1,1.4,0.1,2.7,0.2,4.1c-0.1,0.7-0.1,1.4-0.2,2.1C10.7,96.9,10.6,94.8,11.8,92.7z"/>
	<path class="st33" d="M28.5,112c1.8,0.1,3.7-0.7,5.3,0.7C32,112.9,30.1,113.1,28.5,112z"/>
	<path class="st36" d="M28.8,81.9c-2.6-0.7-5.1-0.2-7.6,0.8c-1.1,0.5-2.2,1.2-2.4-0.8c6.7-7,13.4-14,20.1-21c2.6-2,5-4.4,7-7
		c1.6-1.4,3.3-2.8,4.9-4.2c2.5,4.5-2.5,5.7-3.7,8.5c-1.3,1.9-3,3.4-4.3,5.3c-1.4,1.9-3,3.8-4.2,5.8c-1.6,2.3-3.1,4.7-4.7,7
		c-0.7,1.1-1.5,2-2.4,3C30.7,80.3,30.2,81.6,28.8,81.9z"/>
	<path class="st37" d="M45.9,57.9c1.2-3,5.6-4.1,4.9-8.2c0.4-0.6,0.8-1.2,1.1-1.8c1.6-1,3-2.4,4-4c1.3-1.3,2.7-2.7,4-4
		c0.6-0.4,1.3-0.8,1.9-1.1c0.9,3.2-2.9,4.3-3,7.1c0,0.6-0.7,0.6-1,1c-2.7,2.5-4.7,5.5-6,9c-0.6,0.3-1.3,0.7-1.9,1
		C48.8,58.4,47.6,59.3,45.9,57.9z"/>
	<path class="st32" d="M42.8,36.9c-8.5-0.4-16.8-2-25-4C26.3,33.1,34.7,34.5,42.8,36.9z"/>
	<path class="st38" d="M38.8,80.9c6-2,11.6-4.6,16.8-8.2c3.1-2.2,6.9-2.7,10.2-4.6c5.4-3.1,10.7-6.5,16.9-8.2
		c0.4,4.5-3.4,5.4-6.1,6.8c-9.4,4.9-19.1,9.3-28.7,13.9c-3.6,1.7-6.7,5.2-11.1,5.2c-0.9-0.8-0.9-1.8-0.7-2.8
		C36.7,81.9,37.1,80.6,38.8,80.9z"/>
	<path class="st39" d="M82.8,67.9c0,6.1-5.9,5.9-9.1,7.5C62.8,81,51.5,85.6,41.1,92.1c-1.9,1.2-3.9,2.5-6.3,2.7
		c-0.6-0.4-0.8-1-0.9-1.7c0-0.4,0-0.9,0.1-1.3c0.2-0.4,0.4-0.8,0.8-1c10.1-2.9,18.8-8.8,28.3-13C69.9,75,76.3,71.3,82.8,67.9z"/>
	<path class="st40" d="M36.8,82.9c0,1,0,2,0,3c-0.3,0.7-0.7,1.3-1,2c-3.2,2.8-6.5,4.9-11,3c0.7-1.3,1.3-2.7,2-4
		C29.4,83.6,32.6,82,36.8,82.9z"/>
	<path class="st41" d="M24.8,90.9c3.9-0.1,7.3-2,11-3c-0.3,1-0.7,2-1,3c0,0.3,0,0.7,0,1c-3.5,1.7-6.7,4.6-11,3c0-0.7,0-1.3,0-2
		C23.9,92.1,24,91.3,24.8,90.9z"/>
	<path class="st42" d="M21.8,105.9c0-1.3,0-2.7,0.1-4c3.9-2.7,8.5-2.6,13-3c0,0.7,0,1.3,0,2C31.2,104.3,26.5,105,21.8,105.9z"/>
	<path class="st43" d="M34.8,98.9c-4,2.4-8.5,2.4-13,3c0-0.3-0.1-0.7-0.1-1c0,0,0.1,0,0.1,0c3.6-3.6,7.9-5.1,13-4c0,0,0,0,0,0
		C34.8,97.6,34.8,98.2,34.8,98.9z"/>
	<path class="st44" d="M36.8,82.9c-3.4,1.1-6.9,2.1-10,4c0-0.3,0-0.7,0-1c0.7-1.3,1.3-2.7,2-4c0.7-1,1.4-2,2-3c2.7-0.6,5.3-1.7,8,0
		c0,0.7,0,1.3,0,2C38.2,81.6,37.5,82.2,36.8,82.9z"/>
	<path class="st45" d="M38.8,78.9c-2.7-0.2-5.3,1.4-8,0c0.7-1,1.3-2,2-3c3-1.4,5.1-4.6,8.9-4.2c0.3,0.2,0.4,0.5,0.3,0.8
		c-0.1,0.3-0.1,0.4-0.2,0.4c-0.3,1-0.7,2-1,3C40.2,76.9,39.5,77.9,38.8,78.9z"/>
	<path class="st46" d="M57.8,46.9c0.3-0.3,0.7-0.7,1-1c2.9-0.3,4.8-3.6,8-3C64.3,45.2,61.6,47.3,57.8,46.9z"/>
	<path class="st46" d="M66.8,42.9c0.8-1.8,2.3-2.1,4-2C70.1,42.7,68.5,43,66.8,42.9z"/>
	<path class="st47" d="M41.8,72.9c0-0.3,0-0.7,0-1c-0.4-1.7-0.3-3.1,2-3c4.1-0.2,7.2-3.1,11-4c0,0.7,0,1.3,0,2
		C50.9,69.7,46.8,72.3,41.8,72.9z"/>
	<path class="st48" d="M34.8,96.9c-4.4,1-8.9,1.9-13,4c0.3-1,0.6-2,1-3c3.3-3.3,7.8-3.8,12-5c0,0.7,0,1.3,0,2
		C34.8,95.6,34.8,96.2,34.8,96.9z"/>
	<path class="st49" d="M37.8,68.9c1.3-2,2.7-4,4-6c1.6-1,3.3-3,4.9,0c-0.3,1-0.7,2-1,3c-0.3,0.3-0.7,0.7-1,1
		C42.6,68,41,71.1,37.8,68.9z"/>
	<path class="st50" d="M46.8,62.9c-1.7-1.4-3.3-0.2-4.9,0c1.3-1.7,2.7-3.3,4-5c1.5,0.1,2.7-0.4,4-1c-0.4,1.3-0.7,2.7-1.1,4
		C48.1,61.5,47.5,62.2,46.8,62.9z"/>
	<path class="st51" d="M37.8,68.9c2.6,0.4,4.5-1.8,7-2c-0.3,0.7-0.6,1.3-1,2c-0.7,1-1.3,2-2,3c-3.2,0.9-5.4,4.1-9,4
		C34.5,73.6,36.2,71.2,37.8,68.9z"/>
	<path class="st52" d="M34.8,92.9c-3.5,2.8-8.1,3.1-12,5c0-1.1-0.1-2.3,1-3c3.9-0.2,7-3.2,11-3C34.8,92.2,34.8,92.6,34.8,92.9z"/>
</g>
<g>
	<path class="st53" d="M130.7,38h-5.6v14.2h-2.7V38h-5.6v-2.4h13.8V38z"/>
	<path class="st53" d="M146.8,52.1h-2.7v-7.6h-8.3v7.6h-2.7V35.6h2.7v6.6h8.3v-6.6h2.7V52.1z"/>
	<path class="st53" d="M161.9,38h-8.2v4.2h6.2v2.3h-6.2v5.2h8.5v2.4H151V35.6h10.9V38z"/>
	<path class="st53" d="M196.8,41.7h-21.3v11h16.1v6h-16.1v13.6h22.1v6.2h-29V35.6h28.2V41.7z"/>
	<path class="st53" d="M230.7,49.6v28.9h-4.6V60.7L218,71.3h-1.5l-8.2-10.7v17.8h-4.6V49.6h1.6l11.9,15.9l11.9-15.9H230.7z"/>
	<path class="st53" d="M254.9,73.7h-12.8l-2,4.7h-4.9l12.5-28.9h1.5l12.5,28.9h-4.9L254.9,73.7z M248.5,58l-4.7,11.8h9.4L248.5,58z"
		/>
	<path class="st53" d="M270.9,78.5h-4.6V50.1h4.6V78.5z"/>
	<path class="st53" d="M282.6,74.4h13v4.1H278V50.1h4.6V74.4z"/>
	<path class="st53" d="M332.7,37.5c3.2,1.8,5.8,4.2,7.6,7.2l-5.2,3.8c-3.2-4.9-7.6-7.4-13.1-7.4c-4.4,0-8.1,1.5-11.1,4.5
		c-2.9,3-4.4,6.8-4.4,11.3c0,4.5,1.5,8.3,4.4,11.3c2.9,3,6.6,4.5,11.1,4.5c5.5,0,9.9-2.5,13.1-7.4l5.2,3.8c-1.8,3-4.3,5.4-7.6,7.2
		c-3.2,1.8-6.8,2.7-10.8,2.7c-6.3,0-11.7-2.1-16-6.4c-4.4-4.2-6.5-9.5-6.5-15.8c0-6.2,2.2-11.5,6.6-15.8s9.7-6.4,16-6.4
		C325.9,34.8,329.5,35.7,332.7,37.5z"/>
	<path class="st53" d="M370.5,53.8c2.9,2.8,4.4,6.3,4.4,10.4s-1.5,7.6-4.4,10.4c-2.9,2.8-6.4,4.2-10.6,4.2c-4.2,0-7.7-1.4-10.6-4.2
		c-2.9-2.8-4.3-6.3-4.3-10.4s1.4-7.6,4.3-10.4c2.9-2.8,6.4-4.2,10.6-4.2C364.1,49.6,367.6,51,370.5,53.8z M352.7,56.7
		c-1.9,2-2.9,4.5-2.9,7.5c0,3,1,5.6,2.9,7.5s4.4,3,7.3,3c2.9,0,5.4-1,7.3-3c1.9-2,2.9-4.5,2.9-7.5c0-3-1-5.5-2.9-7.5
		c-1.9-2-4.4-3-7.3-3C357,53.8,354.6,54.8,352.7,56.7z"/>
	<path class="st53" d="M407.3,49.6v28.9h-4.6V60.7l-8.1,10.7H393l-8.2-10.7v17.8h-4.6V49.6h1.6l11.9,15.9l11.9-15.9H407.3z"/>
	<path class="st53" d="M431.7,52.5c1.8,1.6,2.7,3.7,2.7,6.3c0,2.6-0.9,4.7-2.7,6.3c-1.8,1.6-4.1,2.4-7,2.4H419v11h-4.6V50.1h10.4
		C427.6,50.1,430,50.9,431.7,52.5z M419,54.1v9.3h5.7c1.6,0,2.8-0.4,3.7-1.3c0.9-0.8,1.3-2,1.3-3.4s-0.4-2.5-1.3-3.4
		c-0.9-0.9-2.1-1.3-3.7-1.3H419z"/>
	<path class="st53" d="M453.1,73.7h-12.8l-2,4.7h-4.9l12.5-28.9h1.5L460,78.5h-4.9L453.1,73.7z M446.7,58L442,69.8h9.4L446.7,58z"/>
	<path class="st53" d="M487.9,50.1v28.9h-1.5l-17.3-19.7v19.2h-4.6V49.6h1.6l17.2,19.6V50.1H487.9z"/>
	<path class="st53" d="M507.1,67v11.5h-4.6V67l-9.8-16.9h5.1l7,12.3l7.1-12.3h5L507.1,67z"/>
</g>
</svg>
