<svg width="197.6" height="44" xmlns="http://www.w3.org/2000/svg" viewBox="0 0 518.8 115.5"><style>.st32{fill:#13ad9e}.st33{fill:#15a1a0}</style><path d="M16.9 83C9.5 75.4 4.2 66.9 4 55.9c2.6-2.1 5.5-.7 8.2-.4 8.5 1.2 17.2 2.1 25.5 4.4 3.2 2.3.3 3.8-.9 5.1-5.6 5.9-11.6 11.3-17.2 17.2-.8.6-1.6 1.1-2.7.8z" fill="#13b78f"/><path d="M4 47.9v-8c3.2-1.6 6.2.3 9.1.7 12.8 1.6 25.5 3.6 38.1 6.5 1.3.9.8 1.9.3 3-1.8 2.2-3.6 4.3-6.6 4.9-10.5-.4-20.9-2.5-31.3-4.2-3.2-.5-6.8-.3-9.6-2.9z" fill="#13b297"/><path d="M9.6 25.8c.7-2.4 2.3-4.3 4.1-6 1.4-.9 2.9-.6 4.4-.3 16.6 2.8 33.2 5.1 49.8 7.8 1.3.2 3.7-.6 2.8 2.3v.2c-1.7.9-2.2 2.7-3.3 4.1-.8 1-1.8 1.6-3.1 1.8-17.3-3.6-34.8-6-52.2-8.6-1-.1-1.9-.4-2.5-1.3z" fill="#11a8a4"/><path d="M74.9 16.7c1.2 2.9.5 5.6-1 8.2-1.6 1.3-3.5.8-5.2.5-14.9-2.2-29.7-4.6-44.6-7.1-2.3-.4-5.2-.2-5.4-3.7 1.7-2.1 3.7-3.7 6.1-4.7 13.8 2.9 27.9 4.1 41.7 6.7 2.8.5 5.6.7 8.4.1z" fill="#11a5a9"/><path d="M9.6 25.8c8.3 0 16.3 1.9 24.3 3.3 10.4 1.8 21 2.2 31.1 5.8.3 2.4-1.6 3.4-2.9 4.8-.9.6-1.8 1-2.9 1-5.3-1.7-11-1.3-16.4-2.9-7.9-1.6-15.8-3.1-23.9-3.8-.5-.1-1.1-.2-1.6-.3-2.3-.7-4.8-.5-7.1-1.5-1.3-.5-3-.6-2.5-2.7.1-1.5.8-2.7 1.9-3.7z" fill="#12aba0"/><path d="M4 47.9c11.5 1.8 23 3.5 34.5 5.5 2.5.4 4.9.4 7.4.5-.7 3.9-3.1 6.3-7 7-6-.8-12.1-1.2-17.9-2.6C15.3 57 9.6 57 4 55.9v-8z" fill="#13b592"/><path d="M74.9 16.7c-.2 1.6-1.1 2.4-2.7 2.1-14.9-2.3-29.8-4.6-44.8-6.9-1.3-.2-2.1-.9-2.6-2 2.3-2 4.9-3.4 7.8-4.1 6.2-.7 12 1.5 18.1 2 5.9.5 11.7 1.8 17.6 2.8 2 .3 3.9.8 5.4 2.2.4 1.4.8 2.6 1.2 3.9z" fill="#10a2ad"/><path d="M76.6 89.9C68.9 102.5 57.8 110.1 43 112c-1 .5-2 .4-3 .3-4-3.2-4.1-5.1.2-7.1 10.7-4.9 20.8-10.9 31.5-15.7 1.9-.7 3.4-1.6 4.9.4z" fill="#12a8a1"/><path d="M18.7 14.6c3.6 3.7 8.6 2.8 13 3.6 14 2.6 28.2 4.5 42.2 6.7-.4 2-1.4 3.6-3.2 4.8-4.6-.9-9.2-2-13.8-2.8-14.4-2.4-29-3.6-43.2-7.1 1.3-2.1 2.9-3.9 5-5.2z" fill="#11a7a6"/><path d="M51.9 47.9c-16-2.3-32-4.6-47.9-8 .5-1.7.9-3.5 1.4-5.2.5-.2 1-.4 1.4-.4C22.4 37 38.3 37.7 53.6 42c.6.2 1.2.6 1.7 1 1.6 3.6-.5 4.5-3.4 4.9z" fill="#12af9b"/><path d="M73.7 12.9C60 10.4 46.1 9.5 32.6 5.8c4.1-2.5 8.6-3.1 13.3-3 5 .1 10-.4 14.9.2 6 .8 11 3.5 12.9 9.9z" fill="#11a0b0"/><path d="M82.9 57.7c1.4 3 .9 6.1.7 9.2-.3.7-.6 1.4-1 2C72.3 75.1 61.3 80 50.5 85.4c-3.2 1.6-6.5 3.3-9.8 4.8-1.8.8-3.6 1.8-5.7 1-1.1-1.1-.5-2.4-.2-3.6.4-1 1-1.7 1.8-2.3 12-7.6 25.3-12.5 37.8-19.1 3-1.6 6.6-2.5 7.2-6.7.3-.7.7-1.4 1.3-1.8z" fill="#0a81ae"/><path d="M55.9 43.9c-13.4-3.8-27.3-4.7-40.9-7-3.2-.6-6.6-.8-9.6-2.2.4-1 .1-2.2 1.1-2.9 3.9-.9 7.5 1 11.3 1.1 8.4 1.1 16.7 2.6 25 4 5.7 1 11.7.5 17.1 3 0 2.7-1.3 4-4 4z" fill="#12ad9d"/><path d="M81.9 76.9c.2 1.5 0 2.9-1.1 4-2.8 3.5-7 5-10.8 6.9-10.4 5.1-20.8 10.3-31.2 15.6-1 .5-2 1.2-3.3.5-.7-.9-.8-1.9-.6-2.9 1.8-4.7 6.4-6.3 10.3-7.9 10.4-4.4 20.3-9.5 30.3-14.7 2-1.1 3.9-3.1 6.4-1.5z" fill="#0f97a6"/><path d="M81.9 76.9c-4.5 1-8 3.9-12 5.9-9.9 4.8-19.7 9.6-29.6 14.4-1.8.9-3.6 1.8-4.5 3.8-.5.4-.9.3-1.3-.1-.5-.7-.6-1.4-.6-2.2.1-.8.4-1.5.9-2.1 7.8-5.4 16.3-9.3 24.9-13.2 6.4-2.9 12.5-6.1 18.6-9.4 1.4-.8 2.8-1.9 4.6-1-.3 1.2-.7 2.6-1 3.9z" fill="#0e91a8"/><path d="M82.9 57.7c-.1.7-.1 1.5-.2 2.2-2.1 3.5-6.2 3.6-9.3 5.4-9.8 5.6-20 10.6-30.4 15.4-1.4.6-2.8 1.2-4.3.4-.6-.6-.8-1.4-.7-2.2.2-1.7 1-3 2.6-3.8 9.1-2.7 16.9-8.1 25.6-11.8 4.4-1.9 8.4-4.6 12.9-6.2 1.2-.4 2.4-1.2 3.7-.2.2.2.3.5.1.8z" fill="#0773b3"/><path d="M76.6 89.9c-4-1.1-6.8 2-9.8 3.4-9.2 4.2-18 9.4-27.2 13.6-3.8 1.7-.1 3.3.2 5-.8 1-2.1.1-3 .9h-3.1c-1.7-.8-3.6.1-5.3-.7l-.3.1-.3-.2c0-2.6 2.4-2.3 3.9-2.9 2.1-.8 4-1.6 4.8-3.8 6.6-4.9 14.3-7.7 21.4-11.5 5.1-2.8 10.4-5.2 15.7-7.5 1.6-.7 3.2-2 5.1-.4-.2 1.5-1 2.8-2.1 4z" fill="#11a2a2"/><path d="M78.8 85.9c-8.4 2.3-15.8 6.9-23.7 10.5-6.2 2.9-12.2 6.3-18.3 9.5-.8.4-1.2-.1-1.4-.8 0-.5.1-.9.4-1.2 10.3-6.1 21.1-11.1 31.8-16.2 4.5-2.1 8.8-4.6 13.2-6.8-.1 1.9-.8 3.5-2 5z" fill="#109ea4"/><path d="M74.8 37.9c1 .8 1.7 1.8 2 3 1.4 2.6.1 4.3-2 5.2-6.6 3.1-13 6.7-19.5 10.1-1.1.6-2.2.6-3.3 0-1.3-4.9 2.4-7.2 5.1-10 3.1-.6 6.1-1.7 8.7-3.6L67 42c1.3-.4 2.4-1 3.2-2 1.3-1.1 2.8-1.9 4.6-2.1z" fill="#0151bf"/><path d="M82.8 56.9c-10.4 4.9-20.9 9.6-31 15.1-3.3 1.8-6.9 3.9-11 3.9-1-1.4-.3-2.4.7-3.4 4.3-2.2 8.8-4 13-6.4 9.1-4.4 17.8-9.6 27.3-13.2 1.1 1.1 1.1 2.5 1 4z" fill="#066eb5"/><path d="M82.9 72.9C74 77.5 65.3 82.8 56 86.5c-7.4 3-13.6 8.1-21.2 10.4-.1-.2-.3-.4-.4-.6-.2-.8 0-1.4.5-2C46.9 86.5 60 81 72.7 74.5c3.6-1.8 7.9-2.7 10.2-6.6.3-.3.5-.6.8-1 .2 2.1.2 4.1-.8 6z" fill="#0d8daa"/><path d="M78.9 44.8c.7.5 1 1.2 1 2.1 1 1.8.6 3.4-1.1 4.2-10.4 5-20.6 10.6-31.2 15.1-.5.2-1 .1-1.5 0-1.2-1.2-.7-2.4-.2-3.6.6-1.2 1.6-2 2.7-2.6 10-5.3 20.2-10 30.3-15.2z" fill="#035dba"/><path d="M45.8 65.9c10.5-5.1 21-10.2 31.5-15.2 1.7-.8 2.8-1.8 2.5-3.7.9.7 1.1 1.7 1.1 2.8 1.1 3.3-1.6 4.1-3.5 4.9-6.2 2.7-11.8 6.6-18.2 8.6-1.5.5-2.3 1.8-3.7 2.5-3.7 1.2-6.9 4.2-11.2 3.7-1.2-.8-.7-1.7-.3-2.7.4-.7.9-1.2 1.8-.9z" fill="#0463b8"/><path d="M78.9 44.8c0 1.8-1.5 2.7-2.7 3.2-9.5 3.6-18 9.1-27.3 12.9-1.2-1.5-.3-2.8.4-4.1.7-.7 1.4-1.4 2.6-.9 5.7-.9 9.9-4.9 14.9-7.3 2.2-1 4.5-1.8 6.6-2.9 2-1.1 3.8-2 3.5-4.7 1 1 1.8 2.2 2 3.8z" fill="#0258bc"/><path d="M74.8 37.9c-.5 2.1-3 1.6-4 3-1.2 1-2.9.9-4 2-2.9.5-4.8 3.8-8.1 3.2-1.5-3.5 2.7-4.6 3.1-7.3 1-1.3 2.1-2.6 3.1-3.9.7-.6 1.3-1.3 2-1.9.9-.7 1.6-1.7 3-1.2 2 1.7 3.7 3.7 4.9 6.1z" fill="#0444c4"/><path d="M15.8 106.9c-2.8-1.9-3.6-4.8-4-7.9-.5-.7-.5-1.4-.2-2.2 3.6-2.5 8-2.5 11.8-4.2.8.3 1 .9 1.1 1.7-.1 1.1-.4 2.2-.7 3.4-.3 1.1-.7 2.1-1.1 3.1-.1.4-.3.8-.5 1.3-.8 3.3-2.8 5.1-6.4 4.8z" fill="#054e86"/><path d="M23.8 92.9c-3.4 3.1-7.7 3.3-11.8 4-1-1.3-.7-2.7-.2-4.1.1-.6.2-1.2.2-1.8 4.2-3.4 9.1-4.7 14.3-5.4.5.2.8.5 1 .9.3 1.8-.7 3.2-1.6 4.5-.5.7-1 1.5-1.9 1.9z" fill="#034287"/><path d="M26.8 85.9c-4.9 1.7-9.9 3.3-14.8 5 .5-3.3 3.3-5.3 4.9-7.9.6-.4 1.3-.7 1.9-1.1 3.4.1 6.8-3.2 10.2 0 .3 1.9-.3 3.3-2.2 4z" fill="#033d87"/><path d="M54.8 64.9c6.7-4.6 14.7-6.8 21.6-11 1.8-1.1 4-1.6 4.4-4.1 1 .8 1 1.9 1 3.1-2.5 4.1-7.5 4.1-11.1 6.6-4.7 3.3-10.6 5-15.9 7.4-.6-.7-.5-1.3 0-2z" fill="#0668b7"/><path d="M35.8 104.9l1 1c0 2.1-.2 3.8-3.3 3.7-1.9 0-3.8 1.5-5.7 2.3-1.7 0-3.6.3-5-1.1-.9-1.3-1-2.9.4-3.3 4.2-1.2 7.9-4.3 12.6-2.6z" fill="#0f97a0"/><path d="M35.8 104.9c-3.7 1-7.4 2.1-11.2 3-1.8.4-1.8 1.6-1.8 2.9-.9.1-1.7.2-2.3-.7-.1-1.6 0-3.1.9-4.4 4.2-2.3 8.8-3.6 13.3-4.8h1v3c.1.3.1.7.1 1z" fill="#0f91a1"/><path d="M21.8 105.9c-.1 1.5.4 3.2-1.3 4.3-1.9-.6-3.5-1.7-4.7-3.3 2.6-1.4 5.3-2.7 6-6 .4.3.7.8.9 1.3.4 1.4.1 2.6-.9 3.7z" fill="#095a87"/><path class="st32" d="M17.8 32.9c-3.9.6-7.5-.9-11.3-1.1.4-.8.8-1.5 1.1-2.3 2.8 3 7.1 1.3 10.2 3.4z"/><path class="st33" d="M36.9 112.7c.8-1 1.9-.8 3-.9 1.1 0 2.2.1 3.3.1-2.1 1.2-4.2 1-6.3.8z"/><path d="M69.9 31.8l-3 1.2c.7-1.7 1.8-3 3.8-3.1-.2.6-.5 1.3-.8 1.9z" fill="#52a0bd"/><path d="M11.8 92.7c.1 1.4.1 2.7.2 4.1-.1.7-.1 1.4-.2 2.1-1.1-2-1.2-4.1 0-6.2z" fill="#084a89"/><path class="st33" d="M28.5 112c1.8.1 3.7-.7 5.3.7-1.8.2-3.7.4-5.3-.7z"/><path d="M28.8 81.9c-2.6-.7-5.1-.2-7.6.8-1.1.5-2.2 1.2-2.4-.8l20.1-21c2.6-2 5-4.4 7-7 1.6-1.4 3.3-2.8 4.9-4.2 2.5 4.5-2.5 5.7-3.7 8.5-1.3 1.9-3 3.4-4.3 5.3-1.4 1.9-3 3.8-4.2 5.8-1.6 2.3-3.1 4.7-4.7 7-.7 1.1-1.5 2-2.4 3-.8 1-1.3 2.3-2.7 2.6z" fill="#043787"/><path d="M45.9 57.9c1.2-3 5.6-4.1 4.9-8.2.4-.6.8-1.2 1.1-1.8 1.6-1 3-2.4 4-4l4-4c.6-.4 1.3-.8 1.9-1.1.9 3.2-2.9 4.3-3 7.1 0 .6-.7.6-1 1-2.7 2.5-4.7 5.5-6 9-.6.3-1.3.7-1.9 1-1.1 1.5-2.3 2.4-4 1z" fill="#013ba4"/><path class="st32" d="M42.8 36.9c-8.5-.4-16.8-2-25-4 8.5.2 16.9 1.6 25 4z"/><path d="M38.8 80.9c6-2 11.6-4.6 16.8-8.2 3.1-2.2 6.9-2.7 10.2-4.6 5.4-3.1 10.7-6.5 16.9-8.2.4 4.5-3.4 5.4-6.1 6.8-9.4 4.9-19.1 9.3-28.7 13.9-3.6 1.7-6.7 5.2-11.1 5.2-.9-.8-.9-1.8-.7-2.8.6-1.1 1-2.4 2.7-2.1z" fill="#0879b1"/><path d="M82.8 67.9c0 6.1-5.9 5.9-9.1 7.5C62.8 81 51.5 85.6 41.1 92.1c-1.9 1.2-3.9 2.5-6.3 2.7-.6-.4-.8-1-.9-1.7 0-.4 0-.9.1-1.3.2-.4.4-.8.8-1 10.1-2.9 18.8-8.8 28.3-13 6.8-2.8 13.2-6.5 19.7-9.9z" fill="#0d88ab"/><path d="M36.8 82.9v3c-.3.7-.7 1.3-1 2-3.2 2.8-6.5 4.9-11 3 .7-1.3 1.3-2.7 2-4 2.6-3.3 5.8-4.9 10-4z" fill="#076ba5"/><path d="M24.8 90.9c3.9-.1 7.3-2 11-3-.3 1-.7 2-1 3v1c-3.5 1.7-6.7 4.6-11 3v-2c.1-.8.2-1.6 1-2z" fill="#0873a5"/><path d="M21.8 105.9c0-1.3 0-2.7.1-4 3.9-2.7 8.5-2.6 13-3v2c-3.7 3.4-8.4 4.1-13.1 5z" fill="#0d8aa3"/><path d="M34.8 98.9c-4 2.4-8.5 2.4-13 3 0-.3-.1-.7-.1-1h.1c3.6-3.6 7.9-5.1 13-4v2z" fill="#0b84a3"/><path d="M36.8 82.9c-3.4 1.1-6.9 2.1-10 4v-1c.7-1.3 1.3-2.7 2-4 .7-1 1.4-2 2-3 2.7-.6 5.3-1.7 8 0v2c-.6.7-1.3 1.3-2 2z" fill="#0562a6"/><path d="M38.8 78.9c-2.7-.2-5.3 1.4-8 0 .7-1 1.3-2 2-3 3-1.4 5.1-4.6 8.9-4.2.3.2.4.5.3.8-.1.3-.1.4-.2.4-.3 1-.7 2-1 3-.6 1-1.3 2-2 3z" fill="#045aa6"/><path d="M57.8 46.9l1-1c2.9-.3 4.8-3.6 8-3-2.5 2.3-5.2 4.4-9 4zm9-4c.8-1.8 2.3-2.1 4-2-.7 1.8-2.3 2.1-4 2z" fill="#0347bc"/><path d="M41.8 72.9v-1c-.4-1.7-.3-3.1 2-3 4.1-.2 7.2-3.1 11-4v2c-3.9 2.8-8 5.4-13 6z" fill="#0568b6"/><path d="M34.8 96.9c-4.4 1-8.9 1.9-13 4 .3-1 .6-2 1-3 3.3-3.3 7.8-3.8 12-5v4z" fill="#0a7fa4"/><path d="M37.8 68.9c1.3-2 2.7-4 4-6 1.6-1 3.3-3 4.9 0-.3 1-.7 2-1 3l-1 1c-2.1 1.1-3.7 4.2-6.9 2z" fill="#0249a5"/><path d="M46.8 62.9c-1.7-1.4-3.3-.2-4.9 0 1.3-1.7 2.7-3.3 4-5 1.5.1 2.7-.4 4-1-.4 1.3-.7 2.7-1.1 4-.7.6-1.3 1.3-2 2z" fill="#0142a5"/><path d="M37.8 68.9c2.6.4 4.5-1.8 7-2-.3.7-.6 1.3-1 2-.7 1-1.3 2-2 3-3.2.9-5.4 4.1-9 4 1.7-2.3 3.4-4.7 5-7z" fill="#0351a5"/><path d="M34.8 92.9c-3.5 2.8-8.1 3.1-12 5 0-1.1-.1-2.3 1-3 3.9-.2 7-3.2 11-3v1z" fill="#097aa5"/><path d="M130.7 38h-5.6v14.2h-2.7V38h-5.6v-2.4h13.8V38zm16.1 14.1h-2.7v-7.6h-8.3v7.6h-2.7V35.6h2.7v6.6h8.3v-6.6h2.7v16.5zM161.9 38h-8.2v4.2h6.2v2.3h-6.2v5.2h8.5v2.4H151V35.6h10.9V38zm34.9 3.7h-21.3v11h16.1v6h-16.1v13.6h22.1v6.2h-29V35.6h28.2v6.1zm33.9 7.9v28.9h-4.6V60.7L218 71.3h-1.5l-8.2-10.7v17.8h-4.6V49.6h1.6l11.9 15.9 11.9-15.9h1.6zm24.2 24.1h-12.8l-2 4.7h-4.9l12.5-28.9h1.5l12.5 28.9h-4.9l-1.9-4.7zM248.5 58l-4.7 11.8h9.4L248.5 58zm22.4 20.5h-4.6V50.1h4.6v28.4zm11.7-4.1h13v4.1H278V50.1h4.6v24.3zm50.1-36.9c3.2 1.8 5.8 4.2 7.6 7.2l-5.2 3.8c-3.2-4.9-7.6-7.4-13.1-7.4-4.4 0-8.1 1.5-11.1 4.5-2.9 3-4.4 6.8-4.4 11.3 0 4.5 1.5 8.3 4.4 11.3 2.9 3 6.6 4.5 11.1 4.5 5.5 0 9.9-2.5 13.1-7.4l5.2 3.8c-1.8 3-4.3 5.4-7.6 7.2-3.2 1.8-6.8 2.7-10.8 2.7-6.3 0-11.7-2.1-16-6.4-4.4-4.2-6.5-9.5-6.5-15.8 0-6.2 2.2-11.5 6.6-15.8s9.7-6.4 16-6.4c3.9.2 7.5 1.1 10.7 2.9zm37.8 16.3c2.9 2.8 4.4 6.3 4.4 10.4s-1.5 7.6-4.4 10.4c-2.9 2.8-6.4 4.2-10.6 4.2-4.2 0-7.7-1.4-10.6-4.2-2.9-2.8-4.3-6.3-4.3-10.4s1.4-7.6 4.3-10.4c2.9-2.8 6.4-4.2 10.6-4.2 4.2 0 7.7 1.4 10.6 4.2zm-17.8 2.9c-1.9 2-2.9 4.5-2.9 7.5s1 5.6 2.9 7.5 4.4 3 7.3 3c2.9 0 5.4-1 7.3-3 1.9-2 2.9-4.5 2.9-7.5s-1-5.5-2.9-7.5-4.4-3-7.3-3c-3 .1-5.4 1.1-7.3 3zm54.6-7.1v28.9h-4.6V60.7l-8.1 10.7H393l-8.2-10.7v17.8h-4.6V49.6h1.6l11.9 15.9 11.9-15.9h1.7zm24.4 2.9c1.8 1.6 2.7 3.7 2.7 6.3 0 2.6-.9 4.7-2.7 6.3-1.8 1.6-4.1 2.4-7 2.4H419v11h-4.6V50.1h10.4c2.8 0 5.2.8 6.9 2.4zM419 54.1v9.3h5.7c1.6 0 2.8-.4 3.7-1.3.9-.8 1.3-2 1.3-3.4s-.4-2.5-1.3-3.4c-.9-.9-2.1-1.3-3.7-1.3H419zm34.1 19.6h-12.8l-2 4.7h-4.9l12.5-28.9h1.5l12.6 29h-4.9l-2-4.8zM446.7 58L442 69.8h9.4L446.7 58zm41.2-7.9V79h-1.5l-17.3-19.7v19.2h-4.6V49.6h1.6l17.2 19.6V50.1h4.6zM507.1 67v11.5h-4.6V67l-9.8-16.9h5.1l7 12.3 7.1-12.3h5L507.1 67z" fill="#172130"/></svg>