<?xml version="1.0" encoding="utf-8"?>
<!-- Generator: Adobe Illustrator 22.0.0, SVG Export Plug-In . SVG Version: 6.00 Build 0)  -->
<svg version="1.1" id="Layer_1" xmlns="http://www.w3.org/2000/svg" xmlns:xlink="http://www.w3.org/1999/xlink" x="0px" y="0px"
	 viewBox="0 0 1280 1024" height='40' style="enable-background:new 0 0 1280 1024;" xml:space="preserve">
<style type="text/css">
	.st0{fill:#22A1E0;}
</style>
<path class="st0" d="M636.4,534.1c69.4,49.4,138.9,98.8,208.3,148.2c0.9,0.6,1.7,1.7,3.2,1.1c0-0.8,0.1-1.6,0.1-2.4
	c0-54.3,0-108.7,0.1-163c0-3-1.3-4.5-3.4-6c-20-14.2-39.9-28.4-59.8-42.6c-9-6.4-18.1-12.9-27.7-19.8c32.4-21.1,64.2-41.8,96.6-62.9
	C713.3,286.5,573.5,186.7,433,86.4c0,6.9,0,13.2,0,19.6c0,48.5,0,97-0.1,145.5c0,3.2,0.8,5.1,3.5,7c8.5,5.8,16.8,12,25.2,18
	C517,316,572.5,355.6,627.9,395.1c24.9,17.8,49.8,35.5,75.1,53.6c-1.8,1.2-3.2,2.3-4.8,3.3c-20.2,13.2-40.4,26.3-60.5,39.8
	c-3.4,2.3-5.5,2-8.7-0.2c-57.6-41.1-115.2-82.1-172.9-123.1c-7.5-5.4-15.1-10.7-22.9-16.3c-0.2,1.3-0.3,1.7-0.3,2.2
	c0,56.2,0,112.3-0.1,168.5c0,3.3,1.7,4.7,3.9,6.3c21.6,15.3,43.1,30.7,64.8,45.8c3.7,2.6,3.3,3.7-0.2,6
	c-23.8,15.4-47.4,30.9-71.1,46.4c-4.3,2.8-8.7,5.5-12.9,8.6c-4.7,3.5-4.6,5.2,0,8.5c22.4,16.2,44.7,32.5,67.2,48.6
	c120.1,85.6,240.2,171.2,360.3,256.8c0.8,0.6,1.5,1.9,2.9,1.1c0-0.2,0.1-0.3,0.1-0.5c0-54.3,0-108.7,0.1-163c0-2.8-1.3-4.1-3.3-5.5
	c-13.1-9.1-26.2-18.3-39.2-27.5c-76.5-54.5-152.9-109-229.3-163.5c-5.3-3.8-10.6-7.7-16.3-11.8c23.7-15.6,46.9-30.7,69.9-45.9
	C632.7,531.2,634.3,532.7,636.4,534.1z M626.4,356.5c-56.8-40.5-113.5-81-170.4-121.4c-2.9-2.1-4.1-4.1-4.1-7.7
	c0.1-28.2,0.1-56.3,0.1-84.5c0-1.4,0-2.9,0-5.3c116.2,82.9,231.7,165.2,347.6,247.9c-14.1,9.3-27.7,18.2-41.3,27.1
	c-8.1,5.3-16.3,10.4-24.2,15.9c-2.7,1.8-4.3,1.8-6.9-0.1C693.6,404.4,660,380.5,626.4,356.5z M708.2,481.9
	c6.3-4.1,12.6-8.1,18.8-12.3c2.2-1.5,3.6-1.3,5.7,0.2c31.1,22.3,62.3,44.5,93.4,66.7c1.5,1.1,3,1.9,3,4.2c-0.1,30.8,0,61.6,0,93.4
	c-56.7-40.4-112.7-80.3-169-120.5C676.3,502.8,692.3,492.4,708.2,481.9z M825.8,806.2c1.8,1.3,3.3,2.4,3.3,5.1
	c-0.1,29.3-0.1,58.6-0.1,88c0,0.3-0.3,0.5-0.6,1.3c-121-86.3-241.9-172.6-363.5-259.3c10.5-6.8,20.4-13.3,30.2-19.7
	c11.6-7.6,23.2-15.1,34.6-22.8c2.2-1.4,3.5-1.4,5.6,0.1C632,668,728.9,737.1,825.8,806.2z M535.7,558.5c-2.1,1.4-3.4,0.9-5.2-0.4
	c-25.3-18.1-50.6-36.1-76-54.1c-1.6-1.1-2.5-2.3-2.5-4.5c0.1-31.9,0-63.9,0-96.8c51.6,36.8,102.5,73.1,153.9,109.7
	C582.1,528,558.8,543.2,535.7,558.5z"/>
</svg>
